<svg version="1.1" id="Layer_1" xmlns="http://www.w3.org/2000/svg" xmlns:xlink="http://www.w3.org/1999/xlink" x="0px" y="0px"
	 width="100%" viewBox="0 0 1500 1500" enable-background="new 0 0 1500 1500" xml:space="preserve">
<path fill="#B4E76A" opacity="1.000000" stroke="none" 
	d="
M693.000000,1501.000000 
	C462.000031,1501.000000 231.500076,1501.000000 1.000093,1501.000000 
	C1.000062,1001.000122 1.000062,501.000275 1.000031,1.000294 
	C500.999786,1.000196 1000.999573,1.000196 1500.999512,1.000098 
	C1500.999756,500.999664 1500.999756,1000.999329 1500.999878,1500.999512 
	C1231.833374,1501.000000 962.666687,1501.000000 693.000000,1501.000000 
M735.009827,945.903809 
	C735.009827,980.481995 735.009827,1015.060242 735.009827,1049.617920 
	C770.082825,1049.617920 804.317200,1049.617920 838.659241,1049.617920 
	C838.659241,1014.667419 838.659241,980.100098 838.659241,945.033569 
	C803.867798,945.033569 769.414612,945.033569 734.988831,944.092346 
	C734.982971,909.383667 734.977112,874.675049 735.911926,839.990234 
	C770.155518,839.990234 804.399170,839.990234 838.616394,839.990234 
	C838.616394,804.579895 838.616394,770.012756 838.616394,735.341553 
	C803.998230,735.341553 769.764709,735.341553 735.043396,735.341553 
	C735.043396,770.466431 735.043396,805.252380 734.100281,840.011108 
	C699.722290,840.016968 665.344360,840.022888 630.990234,839.088074 
	C630.990234,804.511169 630.990234,769.934265 630.990234,735.383545 
	C595.913208,735.383545 561.679260,735.383545 527.341431,735.383545 
	C527.341431,770.334961 527.341431,804.901855 527.341431,839.956604 
	C562.132996,839.956604 596.585632,839.956604 631.011108,840.899719 
	C631.020203,875.611023 631.029358,910.322266 630.096191,945.009827 
	C595.851318,945.009827 561.606445,945.009827 527.382202,945.009827 
	C527.382202,980.416321 527.382202,1014.984009 527.382202,1049.659180 
	C561.999390,1049.659180 596.233398,1049.659180 630.966431,1049.659180 
	C630.966431,1014.534546 630.966431,979.747986 631.907654,944.988831 
	C666.282959,944.979736 700.658264,944.970581 735.009827,945.903809 
M1317.104736,523.118774 
	C1317.110229,489.958405 1317.030151,456.797516 1317.222290,423.638214 
	C1317.248291,419.150848 1315.883057,418.092072 1311.559692,418.095490 
	C1174.918457,418.202881 1038.277222,418.182404 901.635864,418.196136 
	C899.870056,418.196289 898.104248,418.386169 896.425598,418.482483 
	C896.425598,629.252380 896.425598,839.444397 896.425598,1050.000000 
	C898.830139,1050.000000 900.810730,1050.000000 902.791382,1050.000000 
	C933.285767,1050.000000 963.780090,1050.000854 994.274475,1049.999268 
	C1001.309204,1049.998901 1001.316528,1049.995117 1001.316650,1043.032471 
	C1001.318298,942.384460 1001.317444,841.736450 1001.318726,741.088440 
	C1001.318848,734.125183 1001.324280,734.121887 1008.375122,734.121826 
	C1108.523193,734.121094 1208.671387,734.121338 1308.819458,734.121033 
	C1310.319214,734.121033 1311.826416,734.019592 1313.316895,734.136047 
	C1316.056152,734.349976 1317.162720,733.292847 1317.153076,730.435425 
	C1317.039429,696.611023 1317.011230,662.786377 1317.903442,629.022644 
	C1352.506592,629.022644 1387.109741,629.022644 1422.022583,629.022644 
	C1422.146240,626.666992 1422.305664,625.037720 1422.306396,623.408325 
	C1422.320923,592.076965 1422.220825,560.745056 1422.419678,529.414978 
	C1422.449707,524.680359 1420.857910,523.575073 1416.411743,523.597473 
	C1384.747925,523.757324 1353.082886,523.677673 1321.418213,523.698486 
	C1319.933350,523.699463 1318.448853,523.930298 1317.104736,523.118774 
M524.903503,629.022644 
	C559.506653,629.022644 594.109802,629.022644 629.022583,629.022644 
	C629.146240,626.666870 629.305603,625.037598 629.306396,623.408142 
	C629.321045,592.076843 629.221130,560.744934 629.419861,529.414917 
	C629.449890,524.680359 627.857605,523.575073 623.411621,523.597473 
	C591.747803,523.757324 560.082825,523.677612 528.418213,523.698425 
	C526.933472,523.699402 525.448792,523.930420 524.104858,523.119019 
	C524.110229,489.958527 524.029907,456.797546 524.222046,423.638123 
	C524.248108,419.150391 522.882507,418.092102 518.559509,418.095490 
	C381.918243,418.202850 245.276932,418.182404 108.635620,418.196075 
	C106.869835,418.196259 105.104065,418.386108 103.425705,418.482422 
	C103.425705,629.252441 103.425705,839.444397 103.425705,1050.000000 
	C105.830353,1050.000000 107.810982,1050.000000 109.791618,1050.000000 
	C140.285965,1050.000000 170.780304,1050.000854 201.274643,1049.999268 
	C208.309204,1049.998901 208.316498,1049.995117 208.316620,1043.032349 
	C208.318253,942.384338 208.317398,841.736389 208.318649,741.088379 
	C208.318741,734.125183 208.324310,734.121887 215.375290,734.121826 
	C315.856628,734.121155 416.337982,734.121399 516.819336,734.121399 
	C519.080994,734.121399 521.342712,734.121338 523.682739,734.121338 
	C523.890320,732.543457 524.089233,731.739319 524.088501,730.935364 
	C524.057007,696.944153 524.007690,662.953003 524.903503,629.022644 
z"/>
<path fill="#546263" opacity="1.000000" stroke="none" 
	d="
M523.960571,628.961792 
	C524.007690,662.953003 524.057007,696.944153 524.088501,730.935364 
	C524.089233,731.739319 523.890320,732.543457 523.682739,734.121338 
	C521.342712,734.121338 519.080994,734.121399 516.819336,734.121399 
	C416.337982,734.121399 315.856628,734.121155 215.375290,734.121826 
	C208.324310,734.121887 208.318741,734.125183 208.318649,741.088379 
	C208.317398,841.736389 208.318253,942.384338 208.316620,1043.032349 
	C208.316498,1049.995117 208.309204,1049.998901 201.274643,1049.999268 
	C170.780304,1050.000854 140.285965,1050.000000 109.791618,1050.000000 
	C107.810982,1050.000000 105.830353,1050.000000 103.425705,1050.000000 
	C103.425705,839.444397 103.425705,629.252441 103.425705,418.482422 
	C105.104065,418.386108 106.869835,418.196259 108.635620,418.196075 
	C245.276932,418.182404 381.918243,418.202850 518.559509,418.095490 
	C522.882507,418.092102 524.248108,419.150391 524.222046,423.638123 
	C524.029907,456.797546 524.110229,489.958527 524.053467,523.563293 
	C524.002136,524.007568 524.042480,523.962769 523.573120,523.911133 
	C419.956940,523.845276 316.810120,523.853210 213.663483,523.737244 
	C209.466354,523.732544 208.240250,525.101196 208.255646,529.168213 
	C208.375931,560.995056 208.315002,592.822449 208.341354,624.649719 
	C208.342407,625.925720 208.657547,627.201477 208.879593,628.879883 
	C211.326904,628.879883 213.469254,628.879883 215.611603,628.879883 
	C316.092438,628.879883 416.573303,628.878723 517.054138,628.886841 
	C519.384338,628.887024 521.714600,628.991272 524.023804,629.025635 
	C524.002808,629.004272 523.960571,628.961792 523.960571,628.961792 
z"/>
<path fill="#546263" opacity="1.000000" stroke="none" 
	d="
M1316.960693,628.961792 
	C1317.011230,662.786377 1317.039429,696.611023 1317.153076,730.435425 
	C1317.162720,733.292847 1316.056152,734.349976 1313.316895,734.136047 
	C1311.826416,734.019592 1310.319214,734.121033 1308.819458,734.121033 
	C1208.671387,734.121338 1108.523193,734.121094 1008.375122,734.121826 
	C1001.324280,734.121887 1001.318848,734.125183 1001.318726,741.088440 
	C1001.317444,841.736450 1001.318298,942.384460 1001.316650,1043.032471 
	C1001.316528,1049.995117 1001.309204,1049.998901 994.274475,1049.999268 
	C963.780090,1050.000854 933.285767,1050.000000 902.791382,1050.000000 
	C900.810730,1050.000000 898.830139,1050.000000 896.425598,1050.000000 
	C896.425598,839.444397 896.425598,629.252380 896.425598,418.482483 
	C898.104248,418.386169 899.870056,418.196289 901.635864,418.196136 
	C1038.277222,418.182404 1174.918457,418.202881 1311.559692,418.095490 
	C1315.883057,418.092072 1317.248291,419.150848 1317.222290,423.638214 
	C1317.030151,456.797516 1317.110229,489.958405 1317.053345,523.563110 
	C1317.001953,524.007446 1317.042358,523.962646 1316.572998,523.911499 
	C1212.957275,523.846130 1109.811035,523.854126 1006.664795,523.738220 
	C1002.468140,523.733521 1001.241882,525.100891 1001.257263,529.168396 
	C1001.377747,560.995056 1001.316711,592.822327 1001.343140,624.649414 
	C1001.344177,625.925415 1001.659180,627.201172 1001.881042,628.878662 
	C1004.328491,628.878662 1006.470886,628.878601 1008.613342,628.878601 
	C1109.093628,628.878601 1209.573975,628.877502 1310.054321,628.885681 
	C1312.384521,628.885864 1314.714600,628.990967 1317.023804,629.025635 
	C1317.002808,629.004211 1316.960571,628.961792 1316.960693,628.961792 
z"/>
<path fill="#546263" opacity="1.000000" stroke="none" 
	d="
M523.983154,524.030884 
	C525.448792,523.930420 526.933472,523.699402 528.418213,523.698425 
	C560.082825,523.677612 591.747803,523.757324 623.411621,523.597473 
	C627.857605,523.575073 629.449890,524.680359 629.419861,529.414917 
	C629.221130,560.744934 629.321045,592.076843 629.306396,623.408142 
	C629.305603,625.037598 629.146240,626.666870 629.022583,629.022644 
	C594.109802,629.022644 559.506653,629.022644 524.432007,628.992188 
	C523.960571,628.961792 524.002808,629.004272 523.991516,628.554199 
	C524.000977,593.390381 524.021729,558.676575 524.042480,523.962769 
	C524.042480,523.962769 524.002136,524.007568 523.983154,524.030884 
z"/>
<path fill="#546263" opacity="1.000000" stroke="none" 
	d="
M1316.983032,524.030762 
	C1318.448853,523.930298 1319.933350,523.699463 1321.418213,523.698486 
	C1353.082886,523.677673 1384.747925,523.757324 1416.411743,523.597473 
	C1420.857910,523.575073 1422.449707,524.680359 1422.419678,529.414978 
	C1422.220825,560.745056 1422.320923,592.076965 1422.306396,623.408325 
	C1422.305664,625.037720 1422.146240,626.666992 1422.022583,629.022644 
	C1387.109741,629.022644 1352.506592,629.022644 1317.432007,628.992188 
	C1316.960571,628.961792 1317.002808,629.004211 1316.991089,628.554260 
	C1317.000366,593.390442 1317.021362,558.676514 1317.042358,523.962646 
	C1317.042358,523.962646 1317.001953,524.007446 1316.983032,524.030762 
z"/>
<path fill="#546263" opacity="1.000000" stroke="none" 
	d="
M631.038269,839.956604 
	C596.585632,839.956604 562.132996,839.956604 527.341431,839.956604 
	C527.341431,804.901855 527.341431,770.334961 527.341431,735.383545 
	C561.679260,735.383545 595.913208,735.383545 630.990234,735.383545 
	C630.990234,769.934265 630.990234,804.511169 630.996582,839.540649 
	C631.002869,839.993286 631.038269,839.956604 631.038269,839.956604 
z"/>
<path fill="#546263" opacity="1.000000" stroke="none" 
	d="
M735.043396,840.038269 
	C735.043396,805.252380 735.043396,770.466431 735.043396,735.341553 
	C769.764709,735.341553 803.998230,735.341553 838.616394,735.341553 
	C838.616394,770.012756 838.616394,804.579895 838.616394,839.990234 
	C804.399170,839.990234 770.155518,839.990234 735.459351,839.996582 
	C735.006714,840.002869 735.043396,840.038269 735.043396,840.038269 
z"/>
<path fill="#546263" opacity="1.000000" stroke="none" 
	d="
M735.033569,944.961487 
	C700.658264,944.970581 666.282959,944.979736 631.454834,944.993408 
	C631.001953,944.998047 631.038513,945.033569 631.038513,945.033569 
	C631.029358,910.322266 631.020203,875.611023 631.024658,840.428162 
	C631.038269,839.956604 631.002869,839.993286 630.984619,840.010986 
	C665.344360,840.022888 699.722290,840.016968 734.571838,840.024658 
	C735.043396,840.038269 735.006714,840.002869 734.989014,839.984619 
	C734.977112,874.675049 734.982971,909.383667 734.993408,944.545166 
	C734.998047,944.998047 735.033569,944.961487 735.033569,944.961487 
z"/>
<path fill="#546263" opacity="1.000000" stroke="none" 
	d="
M630.984192,944.979736 
	C630.966431,979.747986 630.966431,1014.534546 630.966431,1049.659180 
	C596.233398,1049.659180 561.999390,1049.659180 527.382202,1049.659180 
	C527.382202,1014.984009 527.382202,980.416321 527.382202,945.009827 
	C561.606445,945.009827 595.851318,945.009827 630.567383,945.021729 
	C631.038513,945.033569 631.001953,944.998047 630.984192,944.979736 
z"/>
<path fill="#546263" opacity="1.000000" stroke="none" 
	d="
M734.979736,945.015808 
	C769.414612,945.033569 803.867798,945.033569 838.659241,945.033569 
	C838.659241,980.100098 838.659241,1014.667419 838.659241,1049.617920 
	C804.317200,1049.617920 770.082825,1049.617920 735.009827,1049.617920 
	C735.009827,1015.060242 735.009827,980.481995 735.021729,945.432617 
	C735.033569,944.961487 734.998047,944.998047 734.979736,945.015808 
z"/>
<path fill="#B4E76A" opacity="1.000000" stroke="none" 
	d="
M523.573120,523.911133 
	C524.021729,558.676575 524.000977,593.390381 524.012512,628.575562 
	C521.714600,628.991272 519.384338,628.887024 517.054138,628.886841 
	C416.573303,628.878723 316.092438,628.879883 215.611603,628.879883 
	C213.469254,628.879883 211.326904,628.879883 208.879593,628.879883 
	C208.657547,627.201477 208.342407,625.925720 208.341354,624.649719 
	C208.315002,592.822449 208.375931,560.995056 208.255646,529.168213 
	C208.240250,525.101196 209.466354,523.732544 213.663483,523.737244 
	C316.810120,523.853210 419.956940,523.845276 523.573120,523.911133 
z"/>
<path fill="#B4E76A" opacity="1.000000" stroke="none" 
	d="
M1316.572998,523.911499 
	C1317.021362,558.676514 1317.000366,593.390442 1317.012085,628.575684 
	C1314.714600,628.990967 1312.384521,628.885864 1310.054321,628.885681 
	C1209.573975,628.877502 1109.093628,628.878601 1008.613342,628.878601 
	C1006.470886,628.878601 1004.328491,628.878662 1001.881042,628.878662 
	C1001.659180,627.201172 1001.344177,625.925415 1001.343140,624.649414 
	C1001.316711,592.822327 1001.377747,560.995056 1001.257263,529.168396 
	C1001.241882,525.100891 1002.468140,523.733521 1006.664795,523.738220 
	C1109.811035,523.854126 1212.957275,523.846130 1316.572998,523.911499 
z"/>
</svg>